<svg xmlns="http://www.w3.org/2000/svg" width="28" height="20" viewBox="0 0 28 20" fill="white"><path d="M27.343 3.06s-.276-1.94-1.12-2.785C25.386.42 24.53 0.42 23.938 0.377 20.013 0 14 0 14 0S7.987 0 4.062 0.377C3.47.42 2.614.42 1.777 1.275.93 2.12.656 3.06.656 3.06S0.38 5.23 0.38 7.4v5.2c0 2.17.276 4.34.276 4.34s.276 1.94 1.12 2.785c.838.855 1.84.812 2.43.863C8.26 20 14 20 14 20s6.013 0 9.938-.377c.592-.05 1.448-.05 2.285-.908.847-.845 1.12-2.785 1.12-2.785s.276-2.17.276-4.34v-5.2c0-2.17-.276-4.34-.276-4.34zM11.12 14.44V5.56L18.596 10l-7.476 4.44z"/></svg>